<mxfile host="app.diagrams.net" modified="2023-07-09T12:33:08.394Z" agent="Mozilla/5.0 (Windows NT 10.0; Win64; x64) AppleWebKit/537.36 (KHTML, like Gecko) Chrome/114.0.0.0 Safari/537.36 Edg/114.0.1823.67" etag="kRu5nh7JPtUD_SJKlae8" version="21.6.1" type="device">
  <diagram name="Page-1" id="tNp1BPElM_RNke1W6lGd">
    <mxGraphModel dx="1149" dy="637" grid="1" gridSize="10" guides="1" tooltips="1" connect="1" arrows="1" fold="1" page="0" pageScale="1" pageWidth="827" pageHeight="1169" math="0" shadow="0">
      <root>
        <mxCell id="0" />
        <mxCell id="1" parent="0" />
        <mxCell id="bHpJ543JydVNvIbL3j4s-19" value="" style="rounded=0;whiteSpace=wrap;html=1;" vertex="1" parent="1">
          <mxGeometry x="110" y="70" width="300" height="260" as="geometry" />
        </mxCell>
        <mxCell id="bHpJ543JydVNvIbL3j4s-2" value="ChatGPT" style="ellipse;shape=cloud;whiteSpace=wrap;html=1;" vertex="1" parent="1">
          <mxGeometry x="450" y="230" width="120" height="80" as="geometry" />
        </mxCell>
        <mxCell id="bHpJ543JydVNvIbL3j4s-3" value="Document Configs" style="shape=cylinder3;whiteSpace=wrap;html=1;boundedLbl=1;backgroundOutline=1;size=15;" vertex="1" parent="1">
          <mxGeometry x="230" y="120" width="60" height="80" as="geometry" />
        </mxCell>
        <mxCell id="bHpJ543JydVNvIbL3j4s-4" value="File Storage" style="shape=cylinder3;whiteSpace=wrap;html=1;boundedLbl=1;backgroundOutline=1;size=15;" vertex="1" parent="1">
          <mxGeometry x="130" y="120" width="60" height="80" as="geometry" />
        </mxCell>
        <mxCell id="bHpJ543JydVNvIbL3j4s-14" style="edgeStyle=orthogonalEdgeStyle;rounded=0;orthogonalLoop=1;jettySize=auto;html=1;exitX=0.25;exitY=0;exitDx=0;exitDy=0;startArrow=classic;startFill=1;" edge="1" parent="1" source="bHpJ543JydVNvIbL3j4s-5">
          <mxGeometry relative="1" as="geometry">
            <mxPoint x="160" y="200" as="targetPoint" />
          </mxGeometry>
        </mxCell>
        <mxCell id="bHpJ543JydVNvIbL3j4s-15" value="" style="edgeStyle=orthogonalEdgeStyle;rounded=0;orthogonalLoop=1;jettySize=auto;html=1;startArrow=classic;startFill=1;" edge="1" parent="1" source="bHpJ543JydVNvIbL3j4s-5" target="bHpJ543JydVNvIbL3j4s-3">
          <mxGeometry relative="1" as="geometry" />
        </mxCell>
        <mxCell id="bHpJ543JydVNvIbL3j4s-16" style="edgeStyle=orthogonalEdgeStyle;rounded=0;orthogonalLoop=1;jettySize=auto;html=1;exitX=0.75;exitY=0;exitDx=0;exitDy=0;entryX=0.5;entryY=1;entryDx=0;entryDy=0;entryPerimeter=0;startArrow=classic;startFill=1;" edge="1" parent="1" source="bHpJ543JydVNvIbL3j4s-5" target="bHpJ543JydVNvIbL3j4s-12">
          <mxGeometry relative="1" as="geometry" />
        </mxCell>
        <mxCell id="bHpJ543JydVNvIbL3j4s-17" style="edgeStyle=orthogonalEdgeStyle;rounded=0;orthogonalLoop=1;jettySize=auto;html=1;exitX=1;exitY=0.5;exitDx=0;exitDy=0;startArrow=classic;startFill=1;" edge="1" parent="1" source="bHpJ543JydVNvIbL3j4s-5" target="bHpJ543JydVNvIbL3j4s-2">
          <mxGeometry relative="1" as="geometry" />
        </mxCell>
        <mxCell id="bHpJ543JydVNvIbL3j4s-5" value="Python Backend" style="rounded=0;whiteSpace=wrap;html=1;" vertex="1" parent="1">
          <mxGeometry x="200" y="240" width="120" height="60" as="geometry" />
        </mxCell>
        <mxCell id="bHpJ543JydVNvIbL3j4s-11" value="" style="edgeStyle=orthogonalEdgeStyle;rounded=0;orthogonalLoop=1;jettySize=auto;html=1;startArrow=classic;startFill=1;" edge="1" parent="1" source="bHpJ543JydVNvIbL3j4s-6" target="bHpJ543JydVNvIbL3j4s-5">
          <mxGeometry relative="1" as="geometry" />
        </mxCell>
        <mxCell id="bHpJ543JydVNvIbL3j4s-6" value="User Interface" style="shape=process;whiteSpace=wrap;html=1;backgroundOutline=1;" vertex="1" parent="1">
          <mxGeometry x="200" y="370" width="120" height="60" as="geometry" />
        </mxCell>
        <mxCell id="bHpJ543JydVNvIbL3j4s-12" value="User Accounts" style="shape=cylinder3;whiteSpace=wrap;html=1;boundedLbl=1;backgroundOutline=1;size=15;" vertex="1" parent="1">
          <mxGeometry x="330" y="120" width="60" height="80" as="geometry" />
        </mxCell>
        <mxCell id="bHpJ543JydVNvIbL3j4s-20" value="Server Systems" style="rounded=0;whiteSpace=wrap;html=1;" vertex="1" parent="1">
          <mxGeometry x="110" y="70" width="300" height="30" as="geometry" />
        </mxCell>
      </root>
    </mxGraphModel>
  </diagram>
</mxfile>
